<svg width="601" height="248" viewBox="0 0 601 248" fill="none" xmlns="http://www.w3.org/2000/svg">
  <!-- 
    Versão 2: Cores aplicadas diretamente (inline) para máxima compatibilidade.
    Descrição: Logo P&A Consultoria e Serviços.
    Cores:
    - Azul Escuro: #2D4C69
    - Verde: #79B84B
    - Azul Claro/Teal: #4B8F9E
  -->

  <!-- Grupo do Ícone (Peixe, Planta, Frasco) -->
  <g id="icone">
    <path fill="#79B84B" d="M129.53 79.13C129.53 73.18 126.97 67.57 122.5 63.6C118.03 59.63 112.02 57.33 105.7 57.33C99.38 57.33 93.37 59.63 88.9 63.6C84.43 67.57 81.87 73.18 81.87 79.13C81.87 82.25 82.47 85.29 83.62 88.13L96.25 61.85C96.95 60.33 98.42 59.33 100.05 59.33H111.35C112.98 59.33 114.45 60.33 115.15 61.85L127.78 88.13C128.93 85.29 129.53 82.25 129.53 79.13Z"/>
    <path fill="#79B84B" d="M105.7 57.33V0H100.05V57.33H105.7Z"/>
    <path fill="#2D4C69" d="M165.71 133.36C174.41 123.83 177.34 111.2 172.99 99.88C172.29 98.13 170.39 97.23 168.54 97.83L129.63 111.16C131.73 118.09 130.68 125.62 126.93 131.93C123.98 136.93 119.83 140.91 115.08 143.43L119.23 151.73C120.23 153.68 122.63 154.63 124.83 154.03L165.71 143.68C164.71 140.26 164.51 136.71 165.71 133.36Z"/>
    <path fill="#2D4C69" d="M110.98 116.33L101.48 112.93C98.43 111.83 95.73 109.93 93.83 107.53L101.93 127.38C104.93 123.18 108.63 119.33 110.98 116.33Z"/>
    <path fill="#2D4C69" d="M129.63 111.16L110.98 116.33C108.63 119.33 104.93 123.18 101.93 127.38L80.93 120.48C84.38 112.18 90.58 105.58 98.78 102.33L105.7 104.93L112.48 102.43L121.23 105.48L129.63 102.43L138.03 105.48L146.43 102.43L154.88 105.48L163.38 102.43L168.54 97.83C170.39 97.23 172.29 98.13 172.99 99.88C177.34 111.2 174.41 123.83 165.71 133.36C164.51 136.71 164.71 140.26 165.71 143.68L124.83 154.03C122.63 154.63 120.23 153.68 119.23 151.73L115.08 143.43C119.83 140.91 123.98 136.93 126.93 131.93C130.68 125.62 131.73 118.09 129.63 111.16Z"/>
    <path fill="#4B8F9E" d="M110.85 174.88C108.75 180.28 105.15 185.08 100.45 188.58L98.55 186.28C103.05 183.18 106.35 178.68 108.25 173.68C109.15 171.38 109.65 168.88 109.65 166.38H100.05V154.08H121.25V166.38C121.25 169.98 120.15 173.48 118.25 176.48C117.85 177.18 117.35 177.88 116.85 178.48C114.95 180.88 112.35 182.78 109.45 183.88L112.85 190.58C119.95 188.08 125.75 181.98 128.25 174.58C129.15 172.18 129.65 169.58 129.65 166.98V154.08H135.25V166.98C135.25 174.28 132.85 181.18 128.65 186.78C124.45 192.38 118.65 196.48 112.05 198.18L105.7 215.13L99.35 198.18C92.75 196.48 86.95 192.38 82.75 186.78C78.55 181.18 76.15 174.28 76.15 166.98V154.08H81.75V166.98C81.75 169.58 82.25 172.18 83.15 174.58C85.65 181.98 91.45 188.08 98.55 190.58L101.95 183.88C99.05 182.78 96.45 180.88 94.55 178.48C94.05 177.78 93.55 177.08 93.15 176.48C91.25 173.48 90.15 169.98 90.15 166.38V154.08H100.05V166.38C100.05 168.88 100.55 171.38 101.45 173.68C103.35 178.68 106.65 183.18 111.15 186.28L112.85 188.58C108.15 185.08 104.55 180.28 102.45 174.88C100.35 169.48 100.05 163.58 102.15 158.28L80.95 163.68V240.33C80.95 244.58 84.35 248.08 88.55 248.08H122.95C127.15 248.08 130.55 244.58 130.55 240.33V163.68L109.35 158.28C111.45 163.58 111.15 169.48 109.05 174.88H110.85Z"/>
  </g>

  <!-- Grupo do Texto -->
  <g id="texto">
    <path fill="#2D4C69" d="M280.49 143.43V91.13H311.24C318.59 91.13 324.44 92.83 328.79 96.23C333.14 99.58 335.32 104.23 335.32 110.18C335.32 114.53 334.23 118.33 332.05 121.58C329.87 124.83 326.75 127.23 322.67 128.78L334.37 143.43H323.32L312.62 129.78H293.99V143.43H280.49ZM293.99 121.08H310.29C313.49 121.08 316.02 120.28 317.87 118.68C319.72 117.03 320.64 114.93 320.64 112.38C320.64 109.83 319.72 107.83 317.87 106.38C316.02 104.88 313.49 104.13 310.29 104.13H293.99V121.08Z"/>
    <path fill="#2D4C69" d="M379.03 124.03C379.03 129.43 377.94 133.78 375.76 137.08C373.58 140.33 370.61 142.63 366.83 143.98L370.43 148.93H365.13L361.88 144.43C360.53 144.73 358.98 144.88 357.23 144.88H346.53V91.13H357.13C363.93 91.13 369.23 92.33 373.03 94.73C376.88 97.08 378.81 100.43 379.23 104.78H370.63C370.23 102.53 369.28 100.83 367.78 99.68C366.33 98.48 364.33 97.88 361.78 97.88H359.83V111.43H361.33C362.43 111.43 363.48 111.38 364.48 111.28L362.53 107.53H368.53L371.43 113.08C371.63 112.18 371.73 111.28 371.73 110.38C371.73 107.13 370.73 104.48 368.73 102.43C366.73 100.38 364.08 99.38 360.78 99.38H359.83V118.18H364.03C367.43 118.18 370.13 118.98 372.13 120.58C374.18 122.13 375.21 124.28 375.21 127.03H367.03C367.03 125.73 366.58 124.83 365.68 124.33C364.83 123.78 363.73 123.53 362.38 123.53H359.83V136.23H362.98C365.53 136.23 367.58 135.63 369.13 134.43C370.73 133.18 371.53 131.63 371.53 129.78H379.03V124.03Z"/>
    <path fill="#2D4C69" d="M439.46 143.43V91.13H425.96V100.08L402.71 91.13H390.61L411.86 114.78L391.76 143.43H404.16L417.66 122.93L425.96 128.53V143.43H439.46Z"/>
    <path fill="#79B84B" d="M282.88 174.67C281.33 174.67 280.01 174.34 278.93 173.67C277.85 173.01 277.03 172.12 276.48 171.02C275.93 169.92 275.65 168.7 275.65 167.37C275.65 165.97 275.93 164.74 276.48 163.67C277.03 162.6 277.85 161.72 278.93 161.07C280.01 160.42 281.33 160.09 282.88 160.09C284.43 160.09 285.75 160.42 286.83 161.07C287.91 161.72 288.73 162.6 289.28 163.67C289.83 164.74 290.11 165.97 290.11 167.37C290.11 168.7 289.83 169.92 289.28 171.02C288.73 172.12 287.91 173.01 286.83 173.67C285.75 174.34 284.43 174.67 282.88 174.67ZM282.88 172.82C283.78 172.82 284.53 172.6 285.13 172.17C285.73 171.74 286.18 171.14 286.48 170.37C286.78 169.6 286.93 168.62 286.93 167.42C286.93 166.22 286.78 165.25 286.48 164.47C286.18 163.7 285.73 163.1 285.13 162.67C284.53 162.24 283.78 162.02 282.88 162.02C281.98 162.02 281.23 162.24 280.63 162.67C280.03 163.1 279.58 163.7 279.28 164.47C278.98 165.25 278.83 166.22 278.83 167.42C278.83 168.62 278.98 169.6 279.28 170.37C279.58 171.14 280.03 171.74 280.63 172.17C281.23 172.6 281.98 172.82 282.88 172.82Z"/>
    <path fill="#79B84B" d="M298.81 174.42V160.32H295.63V174.42H298.81Z"/>
    <path fill="#79B84B" d="M309.11 174.42V164.07H302.26V162.22H315.96V164.07H309.11V174.42Z"/>
    <path fill="#79B84B" d="M327.99 174.67C326.44 174.67 325.12 174.34 324.04 173.67C322.96 173.01 322.14 172.12 321.59 171.02C321.04 169.92 320.76 168.7 320.76 167.37C320.76 165.97 321.04 164.74 321.59 163.67C322.14 162.6 322.96 161.72 324.04 161.07C325.12 160.42 326.44 160.09 327.99 160.09C329.54 160.09 330.86 160.42 331.94 161.07C333.02 161.72 333.84 162.6 334.39 163.67C334.94 164.74 335.21 165.97 335.21 167.37C335.21 168.7 334.94 169.92 334.39 171.02C333.84 172.12 333.02 173.01 331.94 173.67C330.86 174.34 329.54 174.67 327.99 174.67ZM327.99 172.82C328.89 172.82 329.64 172.6 330.24 172.17C330.84 171.74 331.29 171.14 331.59 170.37C331.89 169.6 332.04 168.62 332.04 167.42C332.04 166.22 331.89 165.25 331.59 164.47C331.29 163.7 330.84 163.1 330.24 162.67C329.64 162.24 328.89 162.02 327.99 162.02C327.09 162.02 326.34 162.24 325.74 162.67C325.14 163.1 324.69 163.7 324.39 164.47C324.09 165.25 323.94 166.22 323.94 167.42C323.94 168.62 324.09 169.6 324.39 170.37C324.69 171.14 325.14 171.74 325.74 172.17C326.34 172.6 327.09 172.82 327.99 172.82Z"/>
    <path fill="#79B84B" d="M344.49 174.42L348.02 169.07L340.57 160.32H344.44L349.82 166.92L355.24 160.32H359.12L351.62 169.12L355.27 174.42H351.22L348.02 169.87L344.82 174.42H344.49Z"/>
    <path fill="#79B84B" d="M374.92 174.42L371.39 169.07L378.84 160.32H374.97L369.59 166.92L364.17 160.32H360.29L367.79 169.12L364.14 174.42H368.19L371.39 169.87L374.59 174.42H374.92Z"/>
    <path fill="#79B84B" d="M386.92 160.32V174.42H383.74V160.32H386.92Z"/>
    <path fill="#79B84B" d="M402.7 174.67C401.15 174.67 399.83 174.34 398.75 173.67C397.67 173.01 396.85 172.12 396.3 171.02C395.75 169.92 395.48 168.7 395.48 167.37C395.48 165.97 395.75 164.74 396.3 163.67C396.85 162.6 397.67 161.72 398.75 161.07C399.83 160.42 401.15 160.09 402.7 160.09C404.25 160.09 405.57 160.42 406.65 161.07C407.73 161.72 408.55 162.6 409.1 163.67C409.65 164.74 409.93 165.97 409.93 167.37C409.93 168.7 409.65 169.92 409.1 171.02C408.55 172.12 407.73 173.01 406.65 173.67C405.57 174.34 404.25 174.67 402.7 174.67ZM402.7 172.82C403.6 172.82 404.35 172.6 404.95 172.17C405.55 171.74 406 171.14 406.3 170.37C406.6 169.6 406.75 168.62 406.75 167.42C406.75 166.22 406.6 165.25 406.3 164.47C406 163.7 405.55 163.1 404.95 162.67C404.35 162.24 403.6 162.02 402.7 162.02C401.8 162.02 401.05 162.24 400.45 162.67C399.85 163.1 399.4 163.7 399.1 164.47C398.8 165.25 398.65 166.22 398.65 167.42C398.65 168.62 398.8 169.6 399.1 170.37C399.4 171.14 399.85 171.74 400.45 172.17C401.05 172.6 401.8 172.82 402.7 172.82Z"/>
    <path fill="#79B84B" d="M421.39 174.42V162.22H414.79V160.32H428V162.22H421.39V174.42Z"/>
    <path fill="#79B84B" d="M439.42 162.02L435.54 174.42H432.22L434.32 168.12H429.57L427.47 174.42H424.14L428.02 162.02H439.42ZM430.24 166.32H433.64L431.94 161.07L430.24 166.32Z"/>
    <path fill="#79B84B" d="M451.27 174.42H447.97L445.87 168.07H441.17L439.07 174.42H435.74L440.49 160.32H446.54L451.27 174.42ZM441.84 166.27H445.19L443.52 161.22L441.84 166.27Z"/>
    <path fill="#79B84B" d="M460.94 174.42V160.32H457.76V174.42H460.94Z"/>
    <path fill="#79B84B" d="M473.35 174.42V160.32H470.17V174.42H473.35Z"/>
    <path fill="#79B84B" d="M485.43 174.42V164.07H478.58V162.22H492.28V164.07H485.43V174.42Z"/>
    <path fill="#79B84B" d="M504.16 174.67C502.61 174.67 501.29 174.34 500.21 173.67C499.13 173.01 498.31 172.12 497.76 171.02C497.21 169.92 496.94 168.7 496.94 167.37C496.94 165.97 497.21 164.74 497.76 163.67C498.31 162.6 499.13 161.72 500.21 161.07C501.29 160.42 502.61 160.09 504.16 160.09C505.71 160.09 507.03 160.42 508.11 161.07C509.19 161.72 510.01 162.6 510.56 163.67C511.11 164.74 511.39 165.97 511.39 167.37C511.39 168.7 511.11 169.92 510.56 171.02C510.01 172.12 509.19 173.01 508.11 173.67C507.03 174.34 505.71 174.67 504.16 174.67ZM504.16 172.82C505.06 172.82 505.81 172.6 506.41 172.17C507.01 171.74 507.46 171.14 507.76 170.37C508.06 169.6 508.21 168.62 508.21 167.42C508.21 166.22 508.06 165.25 507.76 164.47C507.46 163.7 507.01 163.1 506.41 162.67C505.81 162.24 505.06 162.02 504.16 162.02C503.26 162.02 502.51 162.24 501.91 162.67C501.31 163.1 500.86 163.7 500.56 164.47C500.26 165.25 500.11 166.22 500.11 167.42C500.11 168.62 500.26 169.6 500.56 170.37C500.86 171.14 501.31 171.74 501.91 172.17C502.51 172.6 503.26 172.82 504.16 172.82Z"/>
    <path fill="#79B84B" d="M526.44 174.42L522.86 160.32H526.91L528.86 168.42L530.81 160.32H534.86L536.81 168.47L538.76 160.32H542.81L539.24 174.42H535.84L533.84 166.42L531.84 174.42H526.44Z"/>
    <path fill="#79B84B" d="M547.45 174.42V160.32H550.63V174.42H547.45Z"/>
  </g>
</svg>
